<svg width="375.19570808140406" height="67.3744618418051" viewBox="0 0 375.19570808140406 67.3744618418051" class="css-1j8o68f"><defs id="SvgjsDefs1402"></defs><g id="SvgjsG1403" featurekey="nRdZyp-0" transform="matrix(0.9068017805716515,0,0,0.9068017805716515,-12.345198001685967,-13.59839976434973)" fill="#f67280"><path xmlns="http://www.w3.org/2000/svg" fill="#f67280" d="M51,14.996c-20.648,0-37.386,16.632-37.386,37.149c0,20.519,16.738,37.15,37.386,37.15  c20.647,0,37.387-16.632,37.387-37.15C88.387,31.628,71.647,14.996,51,14.996z M51.151,86.609  c-19.035,0-34.465-15.333-34.465-34.246c0-18.914,15.43-34.246,34.465-34.246c19.033,0,34.463,15.332,34.463,34.246  C85.614,71.276,70.185,86.609,51.151,86.609z"></path><path xmlns="http://www.w3.org/2000/svg" fill="#f67280" d="M27.429,36.256c0,0,15.666-17.457,38.491-6.267L53.837,40.284l3.579-7.019c0,0-13.874-4.171-24.168,3.886  c0,0,11.637,3.58,10.742,7.608C43.989,44.76,28.771,40.284,27.429,36.256z"></path><path xmlns="http://www.w3.org/2000/svg" fill="#f67280" d="M56.97,47.893l14.769-12.39c0,0,6.268,13.733,4.478,24.922l-15.219-4.924h8.504  c0,0-0.906-10.793-2.747-12.531C64.911,41.232,62.788,49.236,56.97,47.893z"></path><path xmlns="http://www.w3.org/2000/svg" fill="#f67280" d="M43.095,52.369c0,0-17.456-5.678-17.456-4.405s-4.028,7.537,0,17.832l14.323-5.371c0,0,3.396-4.748-9.4,0  l-3.132-8.28C27.429,52.145,43.095,55.95,43.095,52.369z"></path><path xmlns="http://www.w3.org/2000/svg" fill="#f67280" d="M43.095,60.425c0,0-7.609,9.847-7.609,11.638s14.769,9.399,15.218,6.714c0.447-2.685,0.895-15.218,0-18.352  c-0.896-3.133-0.896-3.133-0.896-3.133s-3.133,1.79-3.133,13.875l-5.37-2.849C41.305,68.318,43.542,64.454,43.095,60.425z"></path><path xmlns="http://www.w3.org/2000/svg" fill="#f67280" d="M59.207,76.985c0,0,13.876-7.041,13.876-8.667s-9.634-10.608-13.215-8.819  c-3.581,1.791,6.052,6.297,6.052,6.297s-5.987,4.217-7.469,2.782c-1.481-1.439,1.481,1.435,1.481,1.435s-1.172-3.769-2.963-9.588  C55.18,54.605,56.915,78.178,59.207,76.985z"></path></g><g id="SvgjsG1404" featurekey="Q4qmbg-0" transform="matrix(2.8475373829912938,0,0,2.8475373829912938,89.92465984361927,-8.579391075040633)" fill="#f67280"><path d="M11.12 15.08 c0 2.92 -1.94 5.08 -4.84 5.08 c-0.6 0 -1.78 -0.36 -2.24 -0.82 l0 5.3 l-2.96 0 l0 -14.52 l2.96 0 l0 0.7 c0.42 -0.5 1.18 -0.84 2.04 -0.84 c2.9 0 5.04 2.18 5.04 5.1 z M8.14 15.08 c0 -1.58 -1.02 -2.86 -2.26 -2.86 c-0.76 0 -1.5 0.56 -1.9 1.36 c-0.18 0.4 -0.32 0.96 -0.32 1.5 c0 0.56 0.12 1.06 0.32 1.48 c0.42 0.82 1.12 1.36 1.9 1.36 c1.24 0 2.26 -1.28 2.26 -2.84 z M12.347708333333332 15.76 l0 -5.64 l2.96 0 l0 5.64 c0 1.52 0.42 2.16 1.56 2.16 c1.2 0 1.9 -0.64 1.9 -2.16 l0 -5.64 l2.96 0 l0 9.88 l-2.96 0 l0 -0.9 c-0.56 0.7 -1.78 1.06 -2.64 1.06 c-2.78 0 -3.78 -1.32 -3.78 -4.4 z M39.47541666666666 20 l-2.98 0 l0 -5.64 c0 -1.52 -0.42 -2.16 -1.54 -2.16 c-1.2 0 -1.9 0.64 -1.9 2.16 l0 5.64 l-2.98 0 l0 -5.64 c0 -1.52 -0.4 -2.16 -1.54 -2.16 c-1.2 0 -1.92 0.64 -1.92 2.16 l0 5.64 l-2.96 0 l0 -9.88 l2.96 0 l0 0.9 c0.7 -0.7 1.76 -1.04 2.7 -1.04 c1.4 0 2.3 0.52 2.94 1.34 c0.54 -0.66 1.7 -1.26 3.44 -1.34 c2.78 0 3.78 1.32 3.78 4.38 l0 5.64 z M57.283125 20 l-2.98 0 l0 -5.64 c0 -1.52 -0.42 -2.16 -1.54 -2.16 c-1.2 0 -1.9 0.64 -1.9 2.16 l0 5.64 l-2.98 0 l0 -5.64 c0 -1.52 -0.4 -2.16 -1.54 -2.16 c-1.2 0 -1.92 0.64 -1.92 2.16 l0 5.64 l-2.96 0 l0 -9.88 l2.96 0 l0 0.9 c0.7 -0.7 1.76 -1.04 2.7 -1.04 c1.4 0 2.3 0.52 2.94 1.34 c0.54 -0.66 1.7 -1.26 3.44 -1.34 c2.78 0 3.78 1.32 3.78 4.38 l0 5.64 z M61.37083333333333 13.04 l-2.2 -1.26 c1.1 -1.24 2.58 -1.82 4.12 -1.82 c2.96 0 4.16 1.62 4.16 3.14 l0 6.9 l-2.96 0 l0 -0.7 c-0.46 0.48 -1.28 0.84 -2.2 0.84 c-2.7 0 -3.74 -1.2 -3.74 -3.04 c0 -2.08 1.68 -3.48 4.4 -3.48 l1.54 0 c0 -0.74 -0.56 -1.22 -1.4 -1.22 c-0.86 0 -1.28 0.16 -1.72 0.64 z M64.49083333333333 16.740000000000002 l0 -0.88 l-1.74 0 c-0.78 0 -1.36 0.54 -1.24 1.3 c0.08 0.54 0.56 0.76 1.24 0.76 c1.3 0 1.74 -0.74 1.74 -1.18 z M75.71854166666667 10.26 l-0.4 2.22 c-0.74 -0.32 -0.88 -0.26 -1.22 -0.26 c-1.2 0 -1.9 0.64 -1.9 2.22 l0 5.56 l-2.96 0 l0 -9.88 l2.96 0 l0 0.88 c0.38 -0.68 1.42 -1.02 2.08 -1.02 c0.62 0 0.98 0.02 1.44 0.28 z M80.78625 12.42 c-1.22 0 -2.24 1.08 -2.24 2.66 c0 1.56 1.02 2.64 2.24 2.64 c1.24 0 2.26 -1.08 2.26 -2.64 c0 -1.58 -1.02 -2.66 -2.26 -2.66 z M80.78625 9.98 c2.9 0 5.22 2.18 5.22 5.1 s-2.32 5.08 -5.22 5.08 c-2.88 0 -5.2 -2.16 -5.2 -5.08 s2.32 -5.1 5.2 -5.1 z M90.03395833333332 5.119999999999999 l0 14.88 l-2.98 0 l0 -14.88 l2.98 0 z M94.10166666666666 13.04 l-2.2 -1.26 c1.1 -1.24 2.58 -1.82 4.12 -1.82 c2.96 0 4.16 1.62 4.16 3.14 l0 6.9 l-2.96 0 l0 -0.7 c-0.46 0.48 -1.28 0.84 -2.2 0.84 c-2.7 0 -3.74 -1.2 -3.74 -3.04 c0 -2.08 1.68 -3.48 4.4 -3.48 l1.54 0 c0 -0.74 -0.56 -1.22 -1.4 -1.22 c-0.86 0 -1.28 0.16 -1.72 0.64 z M97.22166666666665 16.740000000000002 l0 -0.88 l-1.74 0 c-0.78 0 -1.36 0.54 -1.24 1.3 c0.08 0.54 0.56 0.76 1.24 0.76 c1.3 0 1.74 -0.74 1.74 -1.18 z"></path></g></svg>